<svg width="35" height="36" viewBox="0 0 35 36" fill="none" xmlns="http://www.w3.org/2000/svg">
<rect x="-3.05176e-05" width="35" height="36" rx="4.35897" fill="white"/>
<g clip-path="url(#clip0_3058_3139)">
<mask id="mask0_3058_3139" style="mask-type:luminance" maskUnits="userSpaceOnUse" x="9" y="10" width="17" height="16">
<path d="M25.6922 10H9.9999V25.6923H25.6922V10Z" fill="white"/>
</mask>
<g mask="url(#mask0_3058_3139)">
<mask id="mask1_3058_3139" style="mask-type:luminance" maskUnits="userSpaceOnUse" x="9" y="10" width="17" height="16">
<path d="M25.6922 10H9.9999V25.6923H25.6922V10Z" fill="white"/>
</mask>
<g mask="url(#mask1_3058_3139)">
<path d="M19.5753 17.8467L25.4425 11.9792C25.6039 11.8177 25.6929 11.6023 25.6932 11.3725C25.6932 11.1426 25.6041 10.9268 25.4425 10.7656L24.9284 10.2516C24.7667 10.0897 24.5512 10.001 24.3212 10.001C24.0916 10.001 23.8761 10.0897 23.7144 10.2516L17.8473 16.1186L11.9799 10.2516C11.8185 10.0897 11.6029 10.001 11.373 10.001C11.1434 10.001 10.9277 10.0897 10.7664 10.2516L10.252 10.7656C9.91718 11.1004 9.91718 11.6449 10.252 11.9792L16.1192 17.8467L10.252 23.7138C10.0904 23.8755 10.0015 24.091 10.0015 24.3208C10.0015 24.5505 10.0904 24.766 10.252 24.9277L10.7662 25.4417C10.9276 25.6035 11.1434 25.6923 11.3729 25.6923C11.6028 25.6923 11.8184 25.6035 11.9798 25.4417L17.8472 19.5746L23.7143 25.4417C23.876 25.6035 24.0915 25.6923 24.3211 25.6923C24.5509 25.6923 24.7666 25.6035 24.9282 25.4417L25.4424 24.9277C25.6038 24.7662 25.6928 24.5505 25.6928 24.3208C25.6928 24.091 25.6038 23.8755 25.4424 23.7139L19.5753 17.8467Z" fill="#2581D9"/>
</g>
</g>
</g>
<defs>
<clipPath id="clip0_3058_3139">
<rect width="15.6923" height="15.6923" fill="white" transform="translate(9.9999 10)"/>
</clipPath>
</defs>
</svg>
