<svg width="20" height="20" viewBox="0 0 20 20" fill="none" xmlns="http://www.w3.org/2000/svg">
<g clip-path="url(#clip0_3058_3202)">
<path d="M2.74007 6.88524C2.9779 7.05306 3.69478 7.55149 4.89077 8.38026C6.08679 9.20904 7.00302 9.84718 7.6395 10.2947C7.70943 10.3438 7.858 10.4504 8.08527 10.6148C8.31259 10.7792 8.50146 10.9122 8.65176 11.0135C8.80216 11.1149 8.98398 11.2286 9.1974 11.3544C9.41075 11.4802 9.61187 11.5748 9.8007 11.6374C9.98958 11.7005 10.1644 11.7318 10.3253 11.7318H10.3358H10.3464C10.5072 11.7318 10.6821 11.7005 10.871 11.6374C11.0598 11.5748 11.2611 11.4801 11.4742 11.3544C11.6875 11.2284 11.8693 11.1149 12.0197 11.0135C12.1701 10.9122 12.3589 10.7792 12.5863 10.6148C12.8135 10.4503 12.9623 10.3438 13.0322 10.2947C13.6755 9.84718 15.3123 8.71058 17.942 6.88502C18.4526 6.52847 18.8792 6.09824 19.2218 5.59463C19.5647 5.09124 19.736 4.56316 19.736 4.01068C19.736 3.549 19.5698 3.15379 19.2375 2.82509C18.9053 2.49632 18.5118 2.33203 18.0574 2.33203H2.61415C2.07563 2.33203 1.6612 2.51385 1.37094 2.87749C1.08072 3.24121 0.935608 3.69584 0.935608 4.24134C0.935608 4.68196 1.12801 5.15944 1.51264 5.67349C1.89722 6.18757 2.3065 6.59152 2.74007 6.88524Z" fill="#024260"/>
<path d="M18.6867 8.00768C16.3929 9.56025 14.6511 10.7669 13.4623 11.6272C13.0636 11.9209 12.7402 12.1501 12.4918 12.3144C12.2435 12.4787 11.9131 12.6466 11.5004 12.8179C11.0878 12.9894 10.7033 13.0749 10.3465 13.0749H10.3358H10.3253C9.9686 13.0749 9.58387 12.9894 9.17128 12.8179C8.75869 12.6466 8.42816 12.4787 8.17986 12.3144C7.93164 12.1501 7.60812 11.9209 7.2095 11.6272C6.26523 10.9349 4.5272 9.72818 1.99534 8.00768C1.59656 7.74207 1.24336 7.43763 0.935608 7.09497V15.4248C0.935608 15.8867 1.0999 16.2817 1.42867 16.6104C1.75737 16.9393 2.15261 17.1037 2.61426 17.1037H18.0575C18.519 17.1037 18.9142 16.9393 19.243 16.6104C19.5718 16.2816 19.736 15.8868 19.736 15.4248V7.09497C19.4352 7.43054 19.0856 7.73498 18.6867 8.00768Z" fill="#024260"/>
</g>
<defs>
<clipPath id="clip0_3058_3202">
<rect width="18.8004" height="18.8004" fill="white" transform="translate(0.935608 0.317627)"/>
</clipPath>
</defs>
</svg>
