<svg width="39" height="39" viewBox="0 0 39 39" fill="none" xmlns="http://www.w3.org/2000/svg">
<rect width="39" height="39" rx="5" fill="white"/>
<g clip-path="url(#clip0_84_25757)">
<path d="M29.5 10H10.5C9.67157 10 9 10.6716 9 11.5C9 12.3284 9.67157 13 10.5 13H29.5C30.3284 13 31 12.3284 31 11.5C31 10.6716 30.3284 10 29.5 10Z" fill="#2581D9"/>
<path d="M29.5 18H10.5C9.67157 18 9 18.6716 9 19.5C9 20.3284 9.67157 21 10.5 21H29.5C30.3284 21 31 20.3284 31 19.5C31 18.6716 30.3284 18 29.5 18Z" fill="#2581D9"/>
<path d="M29.5 26H10.5C9.67157 26 9 26.6716 9 27.5C9 28.3284 9.67157 29 10.5 29H29.5C30.3284 29 31 28.3284 31 27.5C31 26.6716 30.3284 26 29.5 26Z" fill="#2581D9"/>
</g>
<defs>
<clipPath id="clip0_84_25757">
<rect width="22" height="19" fill="white" transform="translate(9 10)"/>
</clipPath>
</defs>
</svg>
