<svg width="47" height="47" viewBox="0 0 47 47" fill="none" xmlns="http://www.w3.org/2000/svg">
<g clip-path="url(#clip0_127_324)">
<path d="M45.1993 42.3636L34.319 31.0477C37.1165 27.7221 38.6493 23.5379 38.6493 19.182C38.6493 9.00475 30.3692 0.724609 20.1919 0.724609C10.0147 0.724609 1.73456 9.00475 1.73456 19.182C1.73456 29.3592 10.0147 37.6394 20.1919 37.6394C24.0126 37.6394 27.6535 36.487 30.7664 34.2994L41.7293 45.7012C42.1875 46.1771 42.8038 46.4395 43.4643 46.4395C44.0894 46.4395 44.6825 46.2012 45.1327 45.7678C46.0892 44.8474 46.1197 43.321 45.1993 42.3636ZM20.1919 5.53958C27.7145 5.53958 33.8343 11.6594 33.8343 19.182C33.8343 26.7046 27.7145 32.8244 20.1919 32.8244C12.6693 32.8244 6.54952 26.7046 6.54952 19.182C6.54952 11.6594 12.6693 5.53958 20.1919 5.53958Z" fill="white"/>
</g>
<defs>
<clipPath id="clip0_127_324">
<rect width="45.7149" height="45.7149" fill="white" transform="translate(0.944458 0.722656)"/>
</clipPath>
</defs>
</svg>
