<svg width="20" height="20" viewBox="0 0 20 20" fill="none" xmlns="http://www.w3.org/2000/svg">
<g clip-path="url(#clip0_3058_3194)">
<path d="M18.5818 13.514C18.5336 13.4758 15.0362 10.9548 14.0762 11.1357C13.6179 11.2168 13.3559 11.5294 12.8301 12.1551C12.7455 12.2561 12.5422 12.4982 12.3841 12.6703C12.0518 12.5619 11.7277 12.43 11.4141 12.2755C9.79586 11.4877 8.48833 10.1801 7.70048 8.56186C7.54589 8.24837 7.41395 7.92421 7.30567 7.59187C7.4784 7.43324 7.72046 7.22997 7.82386 7.14301C8.44662 6.62013 8.75977 6.3581 8.84084 5.89866C9.00711 4.94689 6.48786 1.42534 6.46142 1.39362C6.34712 1.23033 6.19795 1.09449 6.0247 0.995932C5.85146 0.897371 5.65847 0.838552 5.45971 0.82373C4.43861 0.82373 1.52338 4.60555 1.52338 5.24241C1.52338 5.27942 1.57684 9.04185 6.21643 13.7613C10.9312 18.3956 14.6931 18.4491 14.7301 18.4491C15.3675 18.4491 19.1487 15.5339 19.1487 14.5128C19.1341 14.3147 19.0756 14.1224 18.9776 13.9496C18.8795 13.7769 18.7444 13.6281 18.5818 13.514Z" fill="#024260"/>
</g>
<defs>
<clipPath id="clip0_3058_3194">
<rect width="18.8004" height="18.8004" fill="white" transform="translate(0.935608 0.236053)"/>
</clipPath>
</defs>
</svg>
