<?xml version="1.0" standalone="no"?>
<!DOCTYPE svg PUBLIC "-//W3C//DTD SVG 20010904//EN"
 "http://www.w3.org/TR/2001/REC-SVG-20010904/DTD/svg10.dtd">
<svg version="1.0" xmlns="http://www.w3.org/2000/svg"
 width="1500.000000pt" height="1500.000000pt" viewBox="0 0 1500.000000 1500.000000"
 preserveAspectRatio="xMidYMid meet">
<metadata>
Created by potrace 1.14, written by Peter Selinger 2001-2017
</metadata>
<g transform="translate(0.000000,1500.000000) scale(0.100000,-0.100000)"
fill="#000000" stroke="none">
<path d="M3500 7498 c0 -5334 3 -7498 11 -7498 9 0 686 272 784 315 17 7 59
25 95 39 36 15 74 31 85 36 11 5 67 27 125 50 106 42 124 50 215 88 51 22 408
167 705 287 91 36 179 72 195 80 17 7 84 34 150 60 66 27 127 52 135 56 8 4
33 14 55 23 22 8 96 38 165 66 69 28 208 85 310 126 102 41 194 79 205 84 11
5 182 75 380 155 198 80 366 149 374 153 9 5 40 -2 80 -19 286 -117 500 -204
701 -286 129 -52 323 -131 430 -175 107 -43 240 -97 295 -120 55 -22 114 -46
130 -53 17 -7 66 -27 110 -45 44 -18 94 -38 110 -45 17 -7 116 -47 220 -90
105 -42 204 -82 220 -90 17 -7 98 -40 180 -73 159 -65 298 -121 950 -387 585
-239 575 -235 586 -235 5 0 9 2803 9 7498 l0 7497 -4005 0 -4005 0 0 -7497z"/>
</g>
</svg>
