<svg width="32" height="32" viewBox="0 0 32 32" fill="none" xmlns="http://www.w3.org/2000/svg">
<path fill-rule="evenodd" clip-rule="evenodd" d="M31.4385 10.0627H0.563477V25.5109C0.563477 27.0855 1.18929 28.596 2.30198 29.7087C3.41585 30.8225 4.92635 31.4484 6.50098 31.4484C11.7723 31.4484 20.2297 31.4484 25.501 31.4484C27.0756 31.4484 28.5861 30.8225 29.7 29.7087C30.8127 28.596 31.4385 27.0855 31.4385 25.5109V10.0627ZM7.68848 25.5002H10.0635C10.719 25.5002 11.251 24.9682 11.251 24.3127C11.251 23.6572 10.719 23.1252 10.0635 23.1252H7.68848C7.03298 23.1252 6.50098 23.6572 6.50098 24.3127C6.50098 24.9682 7.03298 25.5002 7.68848 25.5002ZM14.8135 25.5002H17.1885C17.844 25.5002 18.376 24.9682 18.376 24.3127C18.376 23.6572 17.844 23.1252 17.1885 23.1252H14.8135C14.158 23.1252 13.626 23.6572 13.626 24.3127C13.626 24.9682 14.158 25.5002 14.8135 25.5002ZM21.9385 25.5002H24.3135C24.969 25.5002 25.501 24.9682 25.501 24.3127C25.501 23.6572 24.969 23.1252 24.3135 23.1252H21.9385C21.283 23.1252 20.751 23.6572 20.751 24.3127C20.751 24.9682 21.283 25.5002 21.9385 25.5002ZM7.68848 20.7502H10.0635C10.719 20.7502 11.251 20.2182 11.251 19.5627C11.251 18.9072 10.719 18.3752 10.0635 18.3752H7.68848C7.03298 18.3752 6.50098 18.9072 6.50098 19.5627C6.50098 20.2182 7.03298 20.7502 7.68848 20.7502ZM14.8135 20.7502H17.1885C17.844 20.7502 18.376 20.2182 18.376 19.5627C18.376 18.9072 17.844 18.3752 17.1885 18.3752H14.8135C14.158 18.3752 13.626 18.9072 13.626 19.5627C13.626 20.2182 14.158 20.7502 14.8135 20.7502ZM21.9385 20.7502H24.3135C24.969 20.7502 25.501 20.2182 25.501 19.5627C25.501 18.9072 24.969 18.3752 24.3135 18.3752H21.9385C21.283 18.3752 20.751 18.9072 20.751 19.5627C20.751 20.2182 21.283 20.7502 21.9385 20.7502ZM7.68848 16.0002H10.0635C10.719 16.0002 11.251 15.4682 11.251 14.8127C11.251 14.1572 10.719 13.6252 10.0635 13.6252H7.68848C7.03298 13.6252 6.50098 14.1572 6.50098 14.8127C6.50098 15.4682 7.03298 16.0002 7.68848 16.0002ZM14.8135 16.0002H17.1885C17.844 16.0002 18.376 15.4682 18.376 14.8127C18.376 14.1572 17.844 13.6252 17.1885 13.6252H14.8135C14.158 13.6252 13.626 14.1572 13.626 14.8127C13.626 15.4682 14.158 16.0002 14.8135 16.0002ZM21.9385 16.0002H24.3135C24.969 16.0002 25.501 15.4682 25.501 14.8127C25.501 14.1572 24.969 13.6252 24.3135 13.6252H21.9385C21.283 13.6252 20.751 14.1572 20.751 14.8127C20.751 15.4682 21.283 16.0002 21.9385 16.0002ZM8.87598 0.573364V4.12518C8.87598 4.78068 8.34398 5.31268 7.68848 5.31268C7.03298 5.31268 6.50098 4.78068 6.50098 4.12518V0.573364C4.92635 0.573364 3.41585 1.19918 2.30198 2.31186C1.18929 3.42574 0.563477 4.93624 0.563477 6.51086V7.68768H31.4385V6.51086C31.4385 4.93624 30.8127 3.42574 29.7 2.31186C28.5861 1.19918 27.0756 0.573364 25.501 0.573364V4.12518C25.501 4.78068 24.969 5.31268 24.3135 5.31268C23.658 5.31268 23.126 4.78068 23.126 4.12518V0.573364H8.87598Z" fill="#2581D9"/>
</svg>
