<svg width="18" height="18" viewBox="0 0 18 18" fill="none" xmlns="http://www.w3.org/2000/svg">
<g clip-path="url(#clip0_3058_3174)">
<path d="M1.02299 8.8938L4.86685 10.3285L6.35466 15.1132C6.44986 15.4197 6.82459 15.533 7.07332 15.3296L9.21595 13.5829C9.44055 13.3999 9.76045 13.3908 9.99517 13.5611L13.8597 16.3669C14.1258 16.5603 14.5027 16.4145 14.5695 16.093L17.4005 2.47541C17.4733 2.1242 17.1282 1.83121 16.7938 1.96055L1.01848 8.04619C0.62918 8.19633 0.632572 8.7475 1.02299 8.8938ZM6.11488 9.56475L13.6272 4.93789C13.7622 4.85498 13.9011 5.03754 13.7852 5.14508L7.58534 10.9081C7.36742 11.111 7.22685 11.3825 7.18703 11.6771L6.97584 13.2422C6.94787 13.4512 6.65432 13.4719 6.59666 13.2697L5.78441 10.4157C5.69138 10.0902 5.82695 9.74247 6.11488 9.56475Z" fill="#024260"/>
</g>
<defs>
<clipPath id="clip0_3058_3174">
<rect width="16.682" height="16.682" fill="white" transform="translate(0.728088 0.849915)"/>
</clipPath>
</defs>
</svg>
