<svg width="16" height="15" viewBox="0 0 16 15" fill="none" xmlns="http://www.w3.org/2000/svg">
<g clip-path="url(#clip0_3058_3178)">
<path fill-rule="evenodd" clip-rule="evenodd" d="M14.6974 14.1052H10.7101L10.4411 13.7533L6.97351 9.21877L6.46057 8.54886L2.14494 2.9064L1.17261 1.63428H5.15996L5.42895 1.98514L8.67537 6.2293L9.18834 6.90024L13.7251 12.833L14.6974 14.1052ZM12.9808 13.2926L8.57964 7.53734L8.06667 6.86638L4.68577 2.44577H2.88815L7.06814 7.91178L7.58108 8.58272L11.1831 13.2926H12.9808Z" fill="#024260"/>
<path d="M7.06807 7.9118L7.58101 8.58274L6.97344 9.21879L2.30674 14.1052H1.15659L6.4605 8.54888L7.06807 7.9118Z" fill="#024260"/>
<path d="M14.2175 1.63428L9.18831 6.90024L8.57961 7.53629L8.06667 6.86638L8.67536 6.2293L12.0825 2.66018L13.0674 1.63428H14.2175Z" fill="#024260"/>
</g>
<defs>
<clipPath id="clip0_3058_3178">
<rect width="15.4614" height="13.9153" fill="white" transform="translate(0.125824 0.915161)"/>
</clipPath>
</defs>
</svg>
