<svg width="19" height="19" viewBox="0 0 19 19" fill="none" xmlns="http://www.w3.org/2000/svg">
<g clip-path="url(#clip0_3058_3170)">
<path d="M9.17499 0.369995H9.17041C4.11308 0.369995 0.000488281 4.48373 0.000488281 9.54221C0.000488281 11.5486 0.647129 13.4083 1.74665 14.9183L0.603561 18.3257L4.12913 17.1987C5.57949 18.1595 7.3096 18.7144 9.17499 18.7144C14.2323 18.7144 18.3449 14.5995 18.3449 9.54221C18.3449 4.48488 14.2323 0.369995 9.17499 0.369995ZM14.5121 13.3223C14.2908 13.9472 13.4126 14.4654 12.712 14.6167C12.2328 14.7188 11.6068 14.8002 9.49946 13.9265C6.80398 12.8098 5.06814 10.0708 4.93285 9.89304C4.80329 9.71533 3.84365 8.44269 3.84365 7.12648C3.84365 5.81026 4.51207 5.16936 4.7815 4.89419C5.00278 4.66832 5.36853 4.56514 5.71936 4.56514C5.83287 4.56514 5.93491 4.57087 6.02663 4.57545C6.29607 4.58692 6.43136 4.60297 6.60907 5.02833C6.83035 5.56147 7.36921 6.87768 7.43342 7.01297C7.49877 7.14826 7.56412 7.3317 7.4724 7.50942C7.38641 7.69286 7.31074 7.77426 7.17545 7.93019C7.04016 8.08612 6.91175 8.20536 6.77646 8.37275C6.65264 8.51836 6.51276 8.67429 6.66869 8.94372C6.82461 9.20742 7.36348 10.0868 8.15688 10.7931C9.18073 11.7046 10.0108 11.9958 10.3078 12.1196C10.529 12.2113 10.7927 12.1895 10.9544 12.0176C11.1596 11.7963 11.413 11.4294 11.671 11.0682C11.8544 10.8091 12.086 10.777 12.3291 10.8687C12.5767 10.9547 13.8872 11.6025 14.1567 11.7367C14.4261 11.8719 14.6038 11.9362 14.6691 12.0497C14.7334 12.1632 14.7334 12.6963 14.5121 13.3223Z" fill="#024260"/>
</g>
<defs>
<clipPath id="clip0_3058_3170">
<rect width="18.3444" height="18.3444" fill="white" transform="translate(0 0.369934)"/>
</clipPath>
</defs>
</svg>
